<svg xmlns="http://www.w3.org/2000/svg" viewBox="0 0 64 64">
  <defs>
    <linearGradient id="bg" x1="10" y1="8" x2="54" y2="56" gradientUnits="userSpaceOnUse">
      <stop offset="0" stop-color="#ff4d6d" />
      <stop offset=".5" stop-color="#ff7a00" />
      <stop offset="1" stop-color="#ffd500" />
    </linearGradient>
    <linearGradient id="skin" x1="18" y1="18" x2="42" y2="48" gradientUnits="userSpaceOnUse">
      <stop offset="0" stop-color="#ffe7b8" />
      <stop offset="1" stop-color="#f4b24d" />
    </linearGradient>
  </defs>
  <rect width="64" height="64" rx="16" fill="#05070a" />
  <circle cx="32" cy="32" r="24" fill="url(#bg)" />
  <path fill="#ffffff" fill-opacity=".18" d="M13 34C17.5 22.5 29 15 42.3 15c4.6 0 8.9.9 12.7 2.7C50.7 11.7 41.8 8 32 8 18.7 8 8 18.7 8 32c0 8 3.9 15.1 9.9 19.4A24 24 0 0 1 13 34Z" />
  <path fill="#111318" d="M27.8 14.7c2.8-2.1 6.1-3.2 10-3.3l1.7 3.1c-3.2.2-5.7 1-8.2 2.9l-3.5-2.7Z" />
  <path fill="#111318" d="M20 24.4a3.8 3.8 0 0 1 3.8-3.8h16.4a3.8 3.8 0 0 1 3.8 3.8v2.8a3.8 3.8 0 0 1-3.8 3.8H23.8a3.8 3.8 0 0 1-3.8-3.8v-2.8Z" />
  <path fill="#ff2f6d" d="M22.2 23.6h7.4v1.4h-7.4Zm12.2 0h7.4v1.4h-7.4Z" />
  <rect x="29.3" y="24.8" width="5.4" height="1.7" rx=".85" fill="#111318" />
  <path fill="url(#skin)" d="M17.2 31.8c0-4.6 3.7-8.3 8.3-8.3h13c4.6 0 8.3 3.7 8.3 8.3 0 1.5-.4 3-1.2 4.2L39 45.8c-1.6 2.2-4.1 3.5-6.8 3.5h-.4c-2.7 0-5.2-1.3-6.8-3.5L18.4 36c-.8-1.2-1.2-2.7-1.2-4.2Z" />
  <path fill="#111318" d="M21.5 39.8c2.4-1.6 4.6-2.4 6.6-2.4 1.8 0 3.3.5 3.9 1 1-.6 2.4-1 3.9-1 2 0 4.2.8 6.6 2.4L39.8 43c-1.4-.8-2.6-1.2-3.9-1.2-1.1 0-2.2.6-3.4 1.7L32 44l-.5-.5c-1.2-1.1-2.3-1.7-3.4-1.7-1.3 0-2.5.4-3.9 1.2l-2.7-3.2Z" />
  <path fill="#ffffff" d="M46.8 14.2 48 16.6l2.7.4-2 1.9.5 2.7-2.4-1.3-2.4 1.3.4-2.7-1.9-1.9 2.7-.4 1.2-2.4Z" />
</svg>
